<svg xmlns="http://www.w3.org/2000/svg" width="18.668" height="22.976" viewBox="0 0 18.668 22.976">
  <path id="Icon_metro-bin" data-name="Icon metro-bin" d="M5.935,9.108v14.36A1.44,1.44,0,0,0,7.371,24.9H20.295a1.44,1.44,0,0,0,1.436-1.436V9.108H5.935Zm4.308,12.924H8.807V11.98h1.436Zm2.872,0H11.679V11.98h1.436Zm2.872,0H14.551V11.98h1.436Zm2.872,0H17.423V11.98h1.436ZM22.09,4.8H17.423v-1.8a1.08,1.08,0,0,0-1.077-1.077H11.32a1.08,1.08,0,0,0-1.077,1.077V4.8H5.576A1.08,1.08,0,0,0,4.5,5.877v1.8H23.167v-1.8A1.08,1.08,0,0,0,22.09,4.8Zm-6.1,0H11.679V3.382h4.308V4.8Z" transform="translate(-4.499 -1.928)" fill="#acacac"/>
</svg>
